/* XPM */
static char *brick[] = {
/* columns rows colors chars-per-pixel */
"16 16 3 1 ",
"  c black",
". c #C84C0C",
"X c #FCBCB0",
/* pixels */
"XXXXXXXXXXXXXXXX",
"....... ....... ",
"....... ....... ",
"                ",
"... ....... ....",
"... ....... ....",
"... ....... ....",
"                ",
"....... ....... ",
"....... ....... ",
"....... ....... ",
"                ",
"... ....... ....",
"... ....... ....",
"... ....... ....",
"                "
};
