/* XPM */
static char *_22bd37effbb4b9fef4fbabf92e8a9094thZgubRef5gzMKi[] = {
/* columns rows colors chars-per-pixel */
"20 152 5 1 ",
"  c None",
". c black",
"X c #00A800",
"o c #80D010",
"O c gray99",
/* pixels */
"              ....  ",
"             .oXXX. ",
"            .oXXXXX.",
"            .oXXXXX.",
"            .XXXXXX.",
"            .XXXXXX.",
"             .XXXX. ",
"              ....  ",
"               oo   ",
"OOOOOOOOOOOOOOOOo   ",
" OOOOOOOOXXXXXOOo   ",
"  OOOOOOXXOXOXXOo   ",
"   OOOOOXOOXOOXOo   ",
"    OOOOXOXXXOXOo   ",
"     OOOXXXOXXXOo   ",
"      OOXXXXXXXOo   ",
"       OOOXXXOOOo   ",
"        OOOOOOOOo   ",
"         OOOOOOOo   ",
"          OOOOOOo   ",
"           OOOOOo   ",
"            OOOOo   ",
"             OOOo   ",
"              OOo   ",
"               Oo   ",
"               oo   ",
"               oo   ",
"               oo   ",
"               oo   ",
"               oo   ",
"               oo   ",
"               oo   ",
"               oo   ",
"               oo   ",
"               oo   ",
"               oo   ",
"               oo   ",
"               oo   ",
"               oo   ",
"               oo   ",
"               oo   ",
"               oo   ",
"               oo   ",
"               oo   ",
"               oo   ",
"               oo   ",
"               oo   ",
"               oo   ",
"               oo   ",
"               oo   ",
"               oo   ",
"               oo   ",
"               oo   ",
"               oo   ",
"               oo   ",
"               oo   ",
"               oo   ",
"               oo   ",
"               oo   ",
"               oo   ",
"               oo   ",
"               oo   ",
"               oo   ",
"               oo   ",
"               oo   ",
"               oo   ",
"               oo   ",
"               oo   ",
"               oo   ",
"               oo   ",
"               oo   ",
"               oo   ",
"               oo   ",
"               oo   ",
"               oo   ",
"               oo   ",
"               oo   ",
"               oo   ",
"               oo   ",
"               oo   ",
"               oo   ",
"               oo   ",
"               oo   ",
"               oo   ",
"               oo   ",
"               oo   ",
"               oo   ",
"               oo   ",
"               oo   ",
"               oo   ",
"               oo   ",
"               oo   ",
"               oo   ",
"               oo   ",
"               oo   ",
"               oo   ",
"               oo   ",
"               oo   ",
"               oo   ",
"               oo   ",
"               oo   ",
"               oo   ",
"               oo   ",
"               oo   ",
"               oo   ",
"               oo   ",
"               oo   ",
"               oo   ",
"               oo   ",
"               oo   ",
"               oo   ",
"               oo   ",
"               oo   ",
"               oo   ",
"               oo   ",
"               oo   ",
"               oo   ",
"               oo   ",
"               oo   ",
"               oo   ",
"               oo   ",
"               oo   ",
"               oo   ",
"               oo   ",
"               oo   ",
"               oo   ",
"               oo   ",
"               oo   ",
"               oo   ",
"               oo   ",
"               oo   ",
"               oo   ",
"               oo   ",
"               oo   ",
"               oo   ",
"               oo   ",
"               oo   ",
"               oo   ",
"               oo   ",
"               oo   ",
"               oo   ",
"               oo   ",
"               oo   ",
"               oo   ",
"               oo   ",
"               oo   ",
"               oo   ",
"               oo   ",
"               oo   ",
"               oo   ",
"               oo   ",
"               oo   "
};
