/* XPM */
static char *morro[] = {
/* columns rows colors chars-per-pixel */
"80 35 3 1 ",
"  c None",
". c black",
"X c #00A800",
/* pixels */
"                                     ......                                     ",
"                                  ...XXXXXX...                                  ",
"                                ..XXXXXXXXXXXX..                                ",
"                               .XXXXXXXXXXXXX.XX.                               ",
"                              .XXXXXXXXXXXXX...XX.                              ",
"                             .XXXXXXXXXXXXXX...XXX.                             ",
"                            .XXXXXXXXXXXXXXX...XXXX.                            ",
"                           .XXXXXXXXXXXXX..X...XXXXX.                           ",
"                          .XXXXXXXXXXXXXX..XX.XXXXXXX.                          ",
"                         .XXXXXXXXXXXXXXX..XXXXXXXXXXX.                         ",
"                        .XXXXXXXXXXXXXXXX..XXXXXXXXXXXX.                        ",
"                       .XXXXXXXXXXXXXXXXXXXXXXXXXXXXXXXX.                       ",
"                      .XXXXXXXXXXXXXXXXXXXXXXXXXXXXXXXXXX.                      ",
"                     .XXXXXXXXXXXXXXXXXXXXXXXXXXXXXXXXXXXX.                     ",
"                    .XXXXXXXXXXXXXXXXXXXXXXXXXXXXXXXXXXXXXX.                    ",
"                   .XXXXXXXXXXXXXXXXXXXXXXXXXXXXXXXXXXXXXXXX.                   ",
"                  .XXXXXXXXXXXXXXXXXXXXXXXXXXXXXXXXXXXXXXXXXX.                  ",
"                 .XXXXXXXXXXXXXXXXXXXXXXXXXXXXXXXXXXXXXXXXXXXX.                 ",
"                .XXXXXXXXXXXXXXXXXXXXXXXXXXXXXXXXXXXXXXXXXXXXXX.                ",
"               .XXXXXXXXXXXXX.XXXXXXXXXXXXXXXXXXXXXXX.XXXXXXXXXX.               ",
"              .XXXXXXXXXXXXX...XXXXXXXXXXXXXXXXXXXXX...XXXXXXXXXX.              ",
"             .XXXXXXXXXXXXXX...XXXXXXXXXXXXXXXXXXXXX...XXXXXXXXXXX.             ",
"            .XXXXXXXXXXXXXXX...XXXXXXXXXXXXXXXXXXXXX...XXXXXXXXXXXX.            ",
"           .XXXXXXXXXXXXX..X...XXXXXXXXXXXXXXXXXX..X...XXXXXXXXXXXXX.           ",
"          .XXXXXXXXXXXXXX..XX.XXXXXXXXXXXXXXXXXXX..XX.XXXXXXXXXXXXXXX.          ",
"         .XXXXXXXXXXXXXXX..XXXXXXXXXXXXXXXXXXXXXX..XXXXXXXXXXXXXXXXXXX.         ",
"        .XXXXXXXXXXXXXXXX..XXXXXXXXXXXXXXXXXXXXXX..XXXXXXXXXXXXXXXXXXXX.        ",
"       .XXXXXXXXXXXXXXXXXXXXXXXXXXXXXXXXXXXXXXXXXXXXXXXXXXXXXXXXXXXXXXXX.       ",
"      .XXXXXXXXXXXXXXXXXXXXXXXXXXXXXXXXXXXXXXXXXXXXXXXXXXXXXXXXXXXXXXXXXX.      ",
"     .XXXXXXXXXXXXXXXXXXXXXXXXXXXXXXXXXXXXXXXXXXXXXXXXXXXXXXXXXXXXXXXXXXXX.     ",
"    .XXXXXXXXXXXXXXXXXXXXXXXXXXXXXXXXXXXXXXXXXXXXXXXXXXXXXXXXXXXXXXXXXXXXXX.    ",
"   .XXXXXXXXXXXXXXXXXXXXXXXXXXXXXXXXXXXXXXXXXXXXXXXXXXXXXXXXXXXXXXXXXXXXXXXX.   ",
"  .XXXXXXXXXXXXXXXXXXXXXXXXXXXXXXXXXXXXXXXXXXXXXXXXXXXXXXXXXXXXXXXXXXXXXXXXXX.  ",
" .XXXXXXXXXXXXXXXXXXXXXXXXXXXXXXXXXXXXXXXXXXXXXXXXXXXXXXXXXXXXXXXXXXXXXXXXXXXX. ",
".XXXXXXXXXXXXXXXXXXXXXXXXXXXXXXXXXXXXXXXXXXXXXXXXXXXXXXXXXXXXXXXXXXXXXXXXXXXXXX."
};
