/* XPM */
static char *nuvemtripla[] = {
/* columns rows colors chars-per-pixel */
"64 24 4 1 ",
"  c None",
". c black",
"X c #3CBCFC",
"o c gray99",
/* pixels */
"              ....            ....            ....              ",
"             .oooo.          .oooo.          .oooo.             ",
"           ..oooooo.       ..oooooo.       ..oooooo.            ",
"          .oooooooo. .    .oooooooo. .    .oooooooo. .          ",
"          .ooooooooo.o.   .ooooooooo.o.   .ooooooooo.o.         ",
"          .oooooo ooooo.  .oooooo ooooo.  .oooooo ooooo.        ",
"         .ooo  ooo oooo. .ooo  ooo oooo. .ooo  ooo oooo.        ",
"        .ooo oooooooooo..ooo oooooooooo..ooo oooooooooo.        ",
"     ...oooooooooooooooooooooooooooooooooooooooooooooooo.  .    ",
"    .ooooooooooooooooooooooooooooooooooooooooooooooooooo. .o.   ",
"   .ooooooooooooooooooooooooooooooooooooooooooooooooooooo.oo.   ",
"   ooooooooooooooooooooooooooooooooooooooooooooooooooooooooo. . ",
" ..oooooooooooooooooooooooooooooooooooooooooooooooooooooooooo.o.",
".oooooooooooooooooooooooooooooooooooooooooooooooooooooooooooooo.",
".oooooooooooooooooooooooooooooooooooooooooooooooooooooooooooooo.",
" .oooooooooooooooooooooooooooooooooooooooooooooooooooooooooooo. ",
"  .oo ooooooooooo ooooooooooooooo ooooooooooooooo ooooooooooo.  ",
"   .oo oo oooooo oooooooo oooooo oooooooo oooooo ooooooooooooo. ",
"    .oo    ooo    ooooXo   ooo    oooo o   ooo    oooo oooooooo.",
"    .ooooo      o     oooo      o     oooo      o     ooooooooo ",
"     ...oooo  oooo   ooooooo  oooo   ooooooo  oooo   oooooooo.. ",
"        .oooooo.oooooooo.oooooo.oooooooo.oooooo.oooooooo.oo..   ",
"         ..ooo. ..oooo.. ..ooo. ..oooo.. ..ooo. ..oooo.. ..     ",
"           ...    ....     ...    ....     ...    ....          "
};
