/* XPM */
static char *stair[] = {
/* columns rows colors chars-per-pixel */
"16 16 3 1 ",
"  c black",
". c #C84C0C",
"X c #FCBCB0",
/* pixels */
".XXXXXXXXXXXXXX ",
"X.XXXXXXXXXXXX  ",
"XX.XXXXXXXXXX   ",
"XXX.XXXXXXXX    ",
"XXXX........    ",
"XXXX........    ",
"XXXX........    ",
"XXXX........    ",
"XXXX........    ",
"XXXX........    ",
"XXXX........    ",
"XXXX........    ",
"XXX         .   ",
"XX           .  ",
"X             . ",
"               ."
};
