/* XPM */
static char *stopping2[] = {
/* columns rows colors chars-per-pixel */
"16 16 4 1 ",
"  c None",
". c #388700",
"X c #EA9E22",
"o c #FFFEFF",
/* pixels */
"     ooooo      ",
"   .oooooooo    ",
"  ......X.X     ",
" XX.XX.XXXXXX   ",
" XX.XX..XX..XX  ",
"  XX.XXXXXX..   ",
"   ooo...oXX    ",
"  ooXXX.oo...   ",
"  o.XXX......   ",
"  oooXX......   ",
"   ooooo....    ",
"   o...oooo     ",
"    ....ooo     ",
" . .oo...o      ",
" .....o         ",
"  ....          "
};
